<svg width="24" height="24" viewBox="0 0 24 24" fill="none" xmlns="http://www.w3.org/2000/svg">
<g clip-path="url(#clip0_204_710)">
<path d="M6.76923 9.48706H10.6154V23.9999H6.76923V9.48706Z" fill="#FF781F"/>
<path d="M13.3846 12.564H17.2308V23.9999H13.3846V12.564Z" fill="#FF781F"/>
<path d="M20 7.12817H23.8462V24H20V7.12817Z" fill="#FF781F"/>
<path d="M0.15387 14.9744H4.00002V24H0.15387V14.9744Z" fill="#FF781F"/>
<path d="M21.7907 0C20.7152 0 19.8434 0.871231 19.8434 1.94595C19.8434 2.19749 19.8917 2.43764 19.9787 2.65831L16.2257 5.85539C15.9503 5.70631 15.6349 5.62164 15.2997 5.62164C14.7431 5.62164 14.2415 5.85533 13.8866 6.22944L10.6468 4.90256C10.6471 4.89 10.6478 4.87754 10.6478 4.86487C10.6478 3.79015 9.77594 2.91892 8.70045 2.91892C7.62497 2.91892 6.75317 3.79015 6.75317 4.86487C6.75317 4.97364 6.76251 5.08015 6.77969 5.18405L3.41379 7.17415C3.08235 6.91303 2.6643 6.75677 2.20948 6.75677C1.13399 6.75677 0.262146 7.628 0.262146 8.70272C0.262146 9.77744 1.13399 10.6487 2.20948 10.6487C3.28497 10.6487 4.15676 9.77744 4.15676 8.70272C4.15676 8.59395 4.14743 8.48744 4.13025 8.38354L7.49615 6.39344C7.82758 6.65456 8.24563 6.81082 8.70051 6.81082C9.25707 6.81082 9.75871 6.57713 10.1136 6.20303L13.3534 7.5299C13.3531 7.54246 13.3524 7.55492 13.3524 7.56754C13.3524 8.64226 14.2242 9.51349 15.2997 9.51349C16.3752 9.51349 17.247 8.64226 17.247 7.56754C17.247 7.34236 17.2083 7.12631 17.1379 6.92513L20.9323 3.69272C21.1913 3.82005 21.4826 3.8919 21.7908 3.8919C22.8663 3.8919 23.7381 3.02067 23.7381 1.94595C23.7381 0.871231 22.8662 0 21.7907 0Z" fill="#FF781F"/>
</g>
<defs>
<clipPath id="clip0_204_710">
<rect width="24" height="24" fill="white"/>
</clipPath>
</defs>
</svg>
