<svg width="24" height="24" viewBox="0 0 24 24" fill="none" xmlns="http://www.w3.org/2000/svg">
<g clip-path="url(#clip0_73_707)">
<path d="M10.5037 21.4458H10.4798C10.4584 21.2087 10.3492 20.9881 10.1734 20.8275C9.99764 20.6669 9.76814 20.578 9.53007 20.5781H9.50569C9.48449 20.3409 9.37525 20.1202 9.19948 19.9596C9.02371 19.7989 8.79415 19.7099 8.55601 19.71H8.53116C8.51403 19.5299 8.44606 19.3585 8.33519 19.2156C8.22432 19.0727 8.07511 18.9643 7.90496 18.9029C7.73481 18.8416 7.55073 18.8299 7.37419 18.8692C7.19765 18.9086 7.03593 18.9973 6.90788 19.125L6.26101 19.7714C6.08245 19.9505 5.98218 20.193 5.98218 20.4459C5.98218 20.6988 6.08245 20.9414 6.26101 21.1205C6.34933 21.2095 6.4544 21.2802 6.57017 21.3285C6.68593 21.3768 6.81011 21.4016 6.93554 21.4017H6.95944C6.98185 21.6381 7.09165 21.8577 7.26738 22.0175C7.4431 22.1773 7.6721 22.2657 7.9096 22.2656H7.93398C7.9534 22.4881 8.05067 22.6965 8.20866 22.8544C8.29686 22.9434 8.40185 23.0142 8.51755 23.0624C8.63324 23.1107 8.75736 23.1356 8.88273 23.1356H8.90663C8.92379 23.3159 8.9919 23.4875 9.10301 23.6305C9.21412 23.7735 9.36364 23.8819 9.53409 23.9431C9.70453 24.0043 9.88887 24.0156 10.0655 23.9759C10.2422 23.9362 10.4039 23.847 10.5318 23.7187L11.1782 23.0723C11.3116 22.9389 11.4025 22.7689 11.4393 22.5839C11.4761 22.3989 11.4572 22.2071 11.385 22.0327C11.3128 21.8584 11.1905 21.7095 11.0336 21.6046C10.8768 21.4998 10.6923 21.4439 10.5037 21.4439V21.4458Z" fill="#FF781F"/>
<path d="M16.2145 13.3808L13.3785 12.8483C13.1024 12.7969 12.8187 12.8028 12.545 12.8658C12.2713 12.9288 12.0135 13.0475 11.7876 13.2144L9.01777 15.2699C8.89002 15.3646 8.78609 15.4877 8.71423 15.6296C8.64236 15.7714 8.60455 15.928 8.60377 16.087C8.603 16.246 8.63929 16.403 8.70977 16.5456C8.78025 16.6881 8.88297 16.8123 9.0098 16.9082C9.24886 17.0876 9.53653 17.1906 9.83514 17.2037C10.1337 17.2169 10.4293 17.1395 10.6832 16.9818L12.0346 16.1343C12.1921 16.4474 12.4856 16.873 12.9956 17.1355C13.5862 17.4388 14.3048 17.4468 15.1331 17.1585L17.661 18.9791C17.7081 19.013 17.7635 19.0335 17.8212 19.0384C17.879 19.0434 17.937 19.0326 17.9892 19.0072L19.7287 18.1555L17.586 12.7297L16.2145 13.3808Z" fill="#FF781F"/>
<path d="M23.9767 17.3067L21.3517 10.448C21.3189 10.3624 21.254 10.293 21.1708 10.2546C21.0877 10.2162 20.9928 10.2117 20.9064 10.2422L19.9646 10.5783L21.3573 14.4221C21.373 14.4655 21.3801 14.5116 21.378 14.5577C21.3759 14.6039 21.3648 14.6492 21.3452 14.691C21.3256 14.7328 21.2979 14.7704 21.2638 14.8015C21.2297 14.8327 21.1898 14.8568 21.1464 14.8725C21.108 14.8864 21.0676 14.8935 21.0268 14.8936C20.955 14.8931 20.885 14.8706 20.8263 14.8291C20.7677 14.7876 20.7231 14.7292 20.6987 14.6616L19.3032 10.8141L18.1407 11.2289C18.0963 11.2449 18.0555 11.2695 18.0208 11.3015C17.9861 11.3335 17.9582 11.3721 17.9387 11.4151C17.9192 11.4581 17.9086 11.5045 17.9073 11.5517C17.9061 11.5989 17.9144 11.6458 17.9317 11.6897L20.6973 18.6924C20.7145 18.7363 20.7404 18.7762 20.7734 18.8099C20.8064 18.8436 20.8458 18.8702 20.8893 18.8883C20.9329 18.9064 20.9796 18.9155 21.0268 18.9151C21.0739 18.9147 21.1205 18.9048 21.1637 18.886L23.7887 17.7549C23.8718 17.7188 23.9377 17.6521 23.9727 17.5686C24.0078 17.4851 24.0092 17.3913 23.9767 17.3067Z" fill="#FF781F"/>
<path d="M6.06237 11.4151C6.04302 11.3718 6.01516 11.333 5.98044 11.3008C5.94573 11.2685 5.90489 11.2437 5.86034 11.2276L4.69691 10.8141L3.30284 14.6621C3.27841 14.7297 3.23387 14.7881 3.1752 14.8296C3.11654 14.8711 3.04657 14.8936 2.97472 14.8941C2.93396 14.894 2.89353 14.8869 2.85519 14.873C2.81175 14.8573 2.77183 14.8332 2.73771 14.8021C2.7036 14.7709 2.67595 14.7334 2.65636 14.6915C2.63677 14.6497 2.62562 14.6044 2.62354 14.5582C2.62146 14.5121 2.6285 14.466 2.64425 14.4226L4.03691 10.5788L3.09378 10.2423C3.00726 10.2115 2.91213 10.2158 2.82873 10.2542C2.74534 10.2927 2.6803 10.3623 2.64753 10.448L0.0234678 17.3068C-0.00906815 17.3913 -0.00772819 17.485 0.027208 17.5685C0.0621443 17.652 0.127977 17.7188 0.210968 17.7549L2.83597 18.886C2.87921 18.9047 2.92576 18.9145 2.97287 18.9148C3.01997 18.9152 3.06666 18.906 3.11017 18.888C3.15367 18.8699 3.1931 18.8433 3.22612 18.8097C3.25914 18.7761 3.28507 18.7362 3.30237 18.6924L6.068 11.6898C6.08544 11.6459 6.09394 11.599 6.09297 11.5518C6.092 11.5047 6.0816 11.4582 6.06237 11.4151Z" fill="#FF781F"/>
<path d="M17.8491 19.7432C17.6341 19.7435 17.4244 19.6759 17.25 19.5501L15.0052 17.9329C14.6788 18.0232 14.3421 18.0705 14.0035 18.0736C13.5418 18.078 13.0858 17.9712 12.6741 17.7623C12.352 17.5962 12.0654 17.3688 11.8304 17.0929L11.0569 17.5781C10.6822 17.8117 10.2456 17.9263 9.80443 17.9069C9.3633 17.8875 8.93839 17.735 8.58566 17.4693C8.37182 17.3075 8.1986 17.0981 8.07975 16.8577C7.9609 16.6173 7.89969 16.3526 7.90096 16.0844C7.90224 15.8162 7.96596 15.5521 8.08709 15.3128C8.20822 15.0736 8.38341 14.8658 8.59879 14.7061L10.6064 13.2159L10.5282 13.1596C10.2515 12.9615 9.93333 12.829 9.59782 12.7722C9.26231 12.7153 8.91826 12.7356 8.59176 12.8315L7.40301 13.1854L6.45707 12.6201L4.18457 18.3717L5.77035 19.2656L6.41066 18.6253C6.72161 18.3148 7.14309 18.1403 7.58254 18.1403C8.02198 18.1403 8.44346 18.3148 8.75441 18.6253C8.89004 18.7614 9.00106 18.92 9.08254 19.094C9.29487 19.1657 9.49055 19.2794 9.65785 19.4285C9.82514 19.5776 9.96061 19.759 10.0561 19.9617C10.2686 20.0332 10.4644 20.147 10.6318 20.2961C10.7991 20.4452 10.9347 20.6265 11.0302 20.8293C11.2979 20.919 11.5383 21.0755 11.7285 21.2841C11.9188 21.4927 12.0526 21.7464 12.1173 22.0212C12.182 22.296 12.1755 22.5828 12.0982 22.8544C12.021 23.1259 11.8757 23.3733 11.6761 23.5729L11.6672 23.5823L11.8036 23.6845C12.0431 23.863 12.339 23.949 12.6369 23.9266C12.9347 23.9042 13.2145 23.7749 13.4246 23.5626L13.4644 23.5223C13.6419 23.3412 13.7597 23.11 13.8019 22.86C14.0134 22.9197 14.237 22.922 14.4497 22.8667C14.6624 22.8115 14.8566 22.7006 15.0122 22.5454L15.0413 22.5164C15.2385 22.3195 15.3631 22.0615 15.3947 21.7846C15.6079 21.8481 15.8342 21.8527 16.0497 21.7978C16.2652 21.7429 16.4618 21.6306 16.6186 21.4729L16.6383 21.4532C16.8295 21.2618 16.9526 21.013 16.9889 20.745C17.1709 20.7883 17.3604 20.7898 17.543 20.7493C17.7257 20.7087 17.8968 20.6273 18.0433 20.511C18.1899 20.3947 18.3081 20.2467 18.3891 20.078C18.4702 19.9094 18.5118 19.7245 18.511 19.5375L18.3 19.6406C18.1595 19.7086 18.0053 19.7437 17.8491 19.7432Z" fill="#FF781F"/>
<path d="M19.0752 5.50781C19.0752 5.55398 19.0843 5.5997 19.102 5.64235C19.1196 5.685 19.1455 5.72376 19.1782 5.7564C19.2108 5.78905 19.2496 5.81495 19.2922 5.83261C19.3349 5.85028 19.3806 5.85938 19.4268 5.85938H21.3749C21.4681 5.85938 21.5575 5.82234 21.6235 5.7564C21.6894 5.69047 21.7264 5.60105 21.7264 5.50781C21.7264 5.41457 21.6894 5.32515 21.6235 5.25922C21.5575 5.19329 21.4681 5.15625 21.3749 5.15625H19.4268C19.3335 5.15625 19.2441 5.19329 19.1782 5.25922C19.1122 5.32515 19.0752 5.41457 19.0752 5.50781Z" fill="#FF781F"/>
<path d="M18.6966 3.90519C18.7591 3.90567 18.8206 3.88949 18.8747 3.85832L20.3354 3.00003C20.4162 2.95285 20.4749 2.87551 20.4987 2.78501C20.5225 2.6945 20.5093 2.59826 20.4621 2.51746C20.415 2.43665 20.3376 2.37789 20.2471 2.35411C20.1566 2.33033 20.0604 2.34348 19.9796 2.39066L18.5185 3.25035C18.4512 3.28909 18.3986 3.34903 18.3689 3.42082C18.3393 3.4926 18.3342 3.57218 18.3546 3.64714C18.3749 3.72209 18.4195 3.7882 18.4814 3.83514C18.5433 3.88208 18.6189 3.9072 18.6966 3.9066V3.90519Z" fill="#FF781F"/>
<path d="M18.5185 7.76525L19.9796 8.62494C20.0196 8.6483 20.0638 8.66355 20.1097 8.66982C20.1557 8.67609 20.2023 8.67326 20.2472 8.66148C20.292 8.64971 20.334 8.62922 20.3709 8.6012C20.4078 8.57317 20.4388 8.53815 20.4622 8.49814C20.4855 8.45813 20.5008 8.41391 20.5071 8.368C20.5133 8.32209 20.5105 8.2754 20.4987 8.23059C20.487 8.18578 20.4665 8.14372 20.4384 8.10683C20.4104 8.06994 20.3754 8.03892 20.3354 8.01556L18.8748 7.15775C18.8349 7.13349 18.7907 7.1174 18.7446 7.11042C18.6985 7.10343 18.6514 7.10568 18.6062 7.11705C18.561 7.12841 18.5185 7.14866 18.4812 7.17661C18.4438 7.20456 18.4124 7.23966 18.3888 7.27986C18.3652 7.32006 18.3498 7.36456 18.3435 7.41077C18.3373 7.45698 18.3402 7.50397 18.3523 7.54901C18.3644 7.59405 18.3853 7.63624 18.4138 7.67313C18.4424 7.71001 18.4779 7.74085 18.5185 7.76384V7.76525Z" fill="#FF781F"/>
<path d="M2.625 5.85938H4.57312C4.66637 5.85938 4.75579 5.82234 4.82172 5.7564C4.88765 5.69047 4.92469 5.60105 4.92469 5.50781C4.92469 5.41457 4.88765 5.32515 4.82172 5.25922C4.75579 5.19329 4.66637 5.15625 4.57312 5.15625H2.625C2.53176 5.15625 2.44234 5.19329 2.37641 5.25922C2.31048 5.32515 2.27344 5.41457 2.27344 5.50781C2.27344 5.60105 2.31048 5.69047 2.37641 5.7564C2.44234 5.82234 2.53176 5.85938 2.625 5.85938Z" fill="#FF781F"/>
<path d="M3.66467 3.00003L5.1253 3.85785C5.16512 3.8821 5.20938 3.89819 5.25548 3.90518C5.30159 3.91217 5.34862 3.90991 5.39384 3.89855C5.43907 3.88718 5.48158 3.86694 5.51891 3.83898C5.55623 3.81103 5.58762 3.77593 5.61125 3.73573C5.63488 3.69553 5.65027 3.65103 5.65654 3.60483C5.66281 3.55862 5.65982 3.51162 5.64775 3.46658C5.63567 3.42154 5.61476 3.37935 5.58623 3.34247C5.5577 3.30559 5.52211 3.27475 5.48155 3.25175L4.02045 2.39066C3.98044 2.3673 3.93622 2.35205 3.89031 2.34578C3.84441 2.3395 3.79772 2.34234 3.7529 2.35411C3.6624 2.37789 3.58506 2.43665 3.53788 2.51746C3.4907 2.59826 3.47755 2.6945 3.50133 2.785C3.52511 2.87551 3.58386 2.95285 3.66467 3.00003Z" fill="#FF781F"/>
<path d="M5.1253 7.15927L3.66467 8.01568C3.58386 8.06286 3.52511 8.14021 3.50133 8.23071C3.47755 8.32121 3.4907 8.41745 3.53788 8.49826C3.58506 8.57906 3.6624 8.63782 3.7529 8.6616C3.84341 8.68538 3.93965 8.67223 4.02045 8.62505L5.48155 7.76677C5.52211 7.74378 5.5577 7.71294 5.58623 7.67606C5.61476 7.63917 5.63567 7.59698 5.64775 7.55194C5.65982 7.5069 5.66281 7.45991 5.65654 7.4137C5.65027 7.36749 5.63488 7.32299 5.61125 7.28279C5.58762 7.24259 5.55623 7.20749 5.51891 7.17954C5.48158 7.15159 5.43907 7.13134 5.39384 7.11998C5.34862 7.10861 5.30159 7.10636 5.25548 7.11334C5.20938 7.12033 5.16512 7.13642 5.1253 7.16068V7.15927Z" fill="#FF781F"/>
<path d="M12 8.90625C12.6721 8.90625 13.3292 8.70694 13.8881 8.33351C14.4469 7.96009 14.8825 7.42932 15.1397 6.80834C15.397 6.18736 15.4643 5.50404 15.3331 4.84481C15.202 4.18558 14.8783 3.58004 14.4031 3.10476C13.9278 2.62948 13.3222 2.30581 12.663 2.17468C12.0038 2.04355 11.3205 2.11085 10.6995 2.36807C10.0785 2.62529 9.54773 3.06087 9.1743 3.61974C8.80088 4.17861 8.60156 4.83567 8.60156 5.50781C8.60256 6.40883 8.96092 7.27266 9.59804 7.90978C10.2352 8.54689 11.099 8.90526 12 8.90625ZM9.885 5.10094C9.95313 5.03729 10.0438 5.00331 10.1369 5.00648C10.2301 5.00964 10.3182 5.04969 10.3819 5.11781L11.4684 6.28125L13.6181 3.97828C13.6818 3.90991 13.77 3.86962 13.8633 3.86628C13.9567 3.86294 14.0476 3.89682 14.1159 3.96047C14.1843 4.02412 14.2246 4.11233 14.2279 4.20569C14.2313 4.29905 14.1974 4.38991 14.1337 4.45828L11.7272 7.03641C11.6942 7.07184 11.6543 7.10011 11.61 7.11943C11.5656 7.13876 11.5178 7.14873 11.4694 7.14873C11.421 7.14873 11.3731 7.13876 11.3288 7.11943C11.2844 7.10011 11.2445 7.07184 11.2116 7.03641L9.86859 5.59735C9.83706 5.56368 9.81247 5.52413 9.79623 5.48096C9.77999 5.43779 9.77242 5.39184 9.77394 5.34574C9.77547 5.29964 9.78606 5.2543 9.80511 5.21229C9.82417 5.17029 9.85132 5.13245 9.885 5.10094Z" fill="#FF781F"/>
<path d="M12 11.0156C13.0893 11.0156 14.1542 10.6926 15.06 10.0874C15.9657 9.48219 16.6717 8.62198 17.0886 7.61556C17.5054 6.60914 17.6145 5.50171 17.402 4.43329C17.1895 3.36488 16.6649 2.38348 15.8946 1.6132C15.1243 0.842922 14.1429 0.318354 13.0745 0.105834C12.0061 -0.106687 10.8987 0.00238645 9.89225 0.41926C8.88583 0.836133 8.02563 1.54208 7.42042 2.44784C6.81522 3.35359 6.49219 4.41847 6.49219 5.50781C6.4938 6.96808 7.0746 8.36808 8.10717 9.40064C9.13974 10.4332 10.5397 11.014 12 11.0156ZM12 1.40625C12.8112 1.40625 13.6042 1.64681 14.2787 2.09749C14.9532 2.54818 15.4789 3.18875 15.7893 3.93821C16.0998 4.68768 16.181 5.51236 16.0228 6.30799C15.8645 7.10361 15.4739 7.83444 14.9002 8.40806C14.3266 8.98167 13.5958 9.37231 12.8002 9.53057C12.0045 9.68883 11.1799 9.6076 10.4304 9.29716C9.68094 8.98673 9.04036 8.46102 8.58968 7.78652C8.13899 7.11202 7.89844 6.31903 7.89844 5.50781C7.89968 4.42039 8.3322 3.37787 9.10113 2.60894C9.87005 1.84002 10.9126 1.40749 12 1.40625Z" fill="#FF781F"/>
</g>
<defs>
<clipPath id="clip0_73_707">
<rect width="24" height="24" fill="white"/>
</clipPath>
</defs>
</svg>
