<svg width="24" height="24" viewBox="0 0 24 24" fill="none" xmlns="http://www.w3.org/2000/svg">
<g clip-path="url(#clip0_204_692)">
<path d="M10.5037 21.4458H10.4798C10.4585 21.2087 10.3492 20.9881 10.1735 20.8275C9.9977 20.6669 9.7682 20.578 9.53013 20.5781H9.50576C9.48455 20.3409 9.37531 20.1202 9.19954 19.9596C9.02377 19.7989 8.79421 19.7099 8.55607 19.71H8.53122C8.51409 19.5299 8.44613 19.3585 8.33525 19.2156C8.22438 19.0727 8.07517 18.9643 7.90502 18.9029C7.73487 18.8416 7.55079 18.8299 7.37425 18.8692C7.19772 18.9086 7.03599 18.9973 6.90794 19.125L6.26107 19.7714C6.08251 19.9505 5.98224 20.193 5.98224 20.4459C5.98224 20.6988 6.08251 20.9414 6.26107 21.1205C6.34939 21.2095 6.45446 21.2802 6.57023 21.3285C6.686 21.3768 6.81017 21.4016 6.9356 21.4017H6.95951C6.98191 21.6381 7.09171 21.8577 7.26744 22.0175C7.44316 22.1773 7.67216 22.2657 7.90966 22.2656H7.93404C7.95346 22.4881 8.05073 22.6965 8.20872 22.8544C8.29693 22.9434 8.40191 23.0142 8.51761 23.0624C8.6333 23.1107 8.75742 23.1356 8.88279 23.1356H8.90669C8.92385 23.3159 8.99196 23.4875 9.10307 23.6305C9.21418 23.7735 9.3637 23.8819 9.53415 23.9431C9.7046 24.0043 9.88893 24.0156 10.0656 23.9759C10.2423 23.9362 10.404 23.847 10.5318 23.7187L11.1783 23.0723C11.3117 22.9389 11.4025 22.7689 11.4393 22.5839C11.4761 22.3989 11.4573 22.2071 11.3851 22.0327C11.3128 21.8584 11.1906 21.7095 11.0337 21.6046C10.8768 21.4998 10.6924 21.4439 10.5037 21.4439V21.4458Z" fill="#A3AED0"/>
<path d="M16.2145 13.3808L13.3786 12.8483C13.1025 12.7969 12.8187 12.8028 12.545 12.8658C12.2713 12.9288 12.0135 13.0475 11.7877 13.2144L9.01783 15.2699C8.89008 15.3646 8.78615 15.4877 8.71429 15.6296C8.64242 15.7714 8.60461 15.928 8.60383 16.087C8.60306 16.246 8.63935 16.403 8.70983 16.5456C8.78031 16.6881 8.88304 16.8123 9.00986 16.9082C9.24892 17.0876 9.53659 17.1906 9.8352 17.2037C10.1338 17.2169 10.4294 17.1395 10.6833 16.9818L12.0347 16.1343C12.1922 16.4474 12.4856 16.873 12.9956 17.1355C13.5863 17.4388 14.3049 17.4468 15.1331 17.1585L17.6611 18.9791C17.7082 19.013 17.7635 19.0335 17.8213 19.0384C17.8791 19.0434 17.9371 19.0326 17.9892 19.0072L19.7288 18.1555L17.5861 12.7297L16.2145 13.3808Z" fill="#A3AED0"/>
<path d="M23.9765 17.3067L21.3515 10.448C21.3188 10.3624 21.2539 10.293 21.1707 10.2546C21.0875 10.2162 20.9926 10.2117 20.9062 10.2422L19.9645 10.5783L21.3572 14.4221C21.3729 14.4655 21.38 14.5116 21.3779 14.5577C21.3758 14.6039 21.3646 14.6492 21.3451 14.691C21.3255 14.7328 21.2978 14.7704 21.2637 14.8015C21.2296 14.8327 21.1897 14.8568 21.1462 14.8725C21.1079 14.8864 21.0675 14.8935 21.0267 14.8936C20.9549 14.8931 20.8849 14.8706 20.8262 14.8291C20.7676 14.7876 20.723 14.7292 20.6986 14.6616L19.3031 10.8141L18.1406 11.2289C18.0962 11.2449 18.0554 11.2695 18.0207 11.3015C17.986 11.3335 17.9581 11.3721 17.9386 11.4151C17.9191 11.4581 17.9084 11.5045 17.9072 11.5517C17.906 11.5989 17.9143 11.6458 17.9315 11.6897L20.6972 18.6924C20.7144 18.7363 20.7402 18.7762 20.7732 18.8099C20.8062 18.8436 20.8457 18.8702 20.8892 18.8883C20.9328 18.9064 20.9795 18.9155 21.0266 18.9151C21.0738 18.9147 21.1204 18.9048 21.1636 18.886L23.7886 17.7549C23.8717 17.7188 23.9376 17.6521 23.9726 17.5686C24.0076 17.4851 24.0091 17.3913 23.9765 17.3067Z" fill="#A3AED0"/>
<path d="M6.06237 11.4151C6.04302 11.3718 6.01516 11.333 5.98044 11.3008C5.94573 11.2685 5.90489 11.2437 5.86034 11.2276L4.69691 10.8141L3.30284 14.6621C3.27841 14.7297 3.23387 14.7881 3.1752 14.8296C3.11654 14.8711 3.04657 14.8936 2.97472 14.8941C2.93396 14.894 2.89353 14.8869 2.85519 14.873C2.81175 14.8573 2.77183 14.8332 2.73771 14.8021C2.7036 14.7709 2.67595 14.7334 2.65636 14.6915C2.63677 14.6497 2.62562 14.6044 2.62354 14.5582C2.62146 14.5121 2.6285 14.466 2.64425 14.4226L4.03691 10.5788L3.09378 10.2423C3.00726 10.2115 2.91213 10.2158 2.82873 10.2542C2.74534 10.2927 2.6803 10.3623 2.64753 10.448L0.0234678 17.3068C-0.00906815 17.3913 -0.00772819 17.485 0.027208 17.5685C0.0621443 17.652 0.127977 17.7188 0.210968 17.7549L2.83597 18.886C2.87921 18.9047 2.92576 18.9145 2.97287 18.9148C3.01997 18.9152 3.06666 18.906 3.11017 18.888C3.15367 18.8699 3.1931 18.8433 3.22612 18.8097C3.25914 18.7761 3.28507 18.7362 3.30237 18.6924L6.068 11.6898C6.08544 11.6459 6.09394 11.599 6.09297 11.5518C6.092 11.5047 6.0816 11.4582 6.06237 11.4151Z" fill="#A3AED0"/>
<path d="M17.849 19.7432C17.634 19.7435 17.4244 19.6759 17.25 19.5501L15.0051 17.9329C14.6788 18.0232 14.342 18.0705 14.0034 18.0736C13.5417 18.078 13.0858 17.9712 12.674 17.7623C12.3519 17.5962 12.0653 17.3688 11.8303 17.0929L11.0569 17.5781C10.6822 17.8117 10.2455 17.9263 9.80436 17.9069C9.36324 17.8875 8.93833 17.735 8.5856 17.4693C8.37175 17.3075 8.19854 17.0981 8.07969 16.8577C7.96084 16.6173 7.89963 16.3526 7.9009 16.0844C7.90218 15.8162 7.9659 15.5521 8.08703 15.3128C8.20816 15.0736 8.38335 14.8658 8.59873 14.7061L10.6064 13.2159L10.5281 13.1596C10.2514 12.9615 9.93327 12.829 9.59776 12.7722C9.26225 12.7153 8.91819 12.7356 8.5917 12.8315L7.40295 13.1854L6.45701 12.6201L4.18451 18.3717L5.77029 19.2656L6.4106 18.6253C6.72155 18.3148 7.14303 18.1403 7.58248 18.1403C8.02192 18.1403 8.4434 18.3148 8.75435 18.6253C8.88998 18.7614 9.001 18.92 9.08248 19.094C9.29481 19.1657 9.49049 19.2794 9.65779 19.4285C9.82508 19.5776 9.96055 19.759 10.0561 19.9617C10.2685 20.0332 10.4643 20.147 10.6317 20.2961C10.7991 20.4452 10.9346 20.6265 11.0301 20.8293C11.2978 20.919 11.5382 21.0755 11.7285 21.2841C11.9187 21.4927 12.0526 21.7464 12.1173 22.0212C12.182 22.296 12.1754 22.5828 12.0982 22.8544C12.021 23.1259 11.8757 23.3733 11.6761 23.5729L11.6672 23.5823L11.8036 23.6845C12.0431 23.863 12.339 23.949 12.6368 23.9266C12.9347 23.9042 13.2144 23.7749 13.4245 23.5626L13.4644 23.5223C13.6418 23.3412 13.7596 23.11 13.8019 22.86C14.0134 22.9197 14.2369 22.922 14.4496 22.8667C14.6623 22.8115 14.8565 22.7006 15.0122 22.5454L15.0412 22.5164C15.2385 22.3195 15.3631 22.0615 15.3947 21.7846C15.6078 21.8481 15.8342 21.8527 16.0497 21.7978C16.2652 21.7429 16.4618 21.6306 16.6186 21.4729L16.6383 21.4532C16.8294 21.2618 16.9526 21.013 16.9889 20.745C17.1709 20.7883 17.3603 20.7898 17.543 20.7493C17.7256 20.7087 17.8967 20.6273 18.0433 20.511C18.1898 20.3947 18.3081 20.2467 18.3891 20.078C18.4701 19.9094 18.5118 19.7245 18.5109 19.5375L18.3 19.6406C18.1594 19.7086 18.0052 19.7437 17.849 19.7432Z" fill="#A3AED0"/>
<path d="M19.0753 5.50781C19.0753 5.55398 19.0844 5.5997 19.1021 5.64235C19.1197 5.685 19.1456 5.72376 19.1783 5.7564C19.2109 5.78905 19.2497 5.81495 19.2923 5.83261C19.335 5.85028 19.3807 5.85938 19.4269 5.85938H21.375C21.4682 5.85938 21.5577 5.82234 21.6236 5.7564C21.6895 5.69047 21.7266 5.60105 21.7266 5.50781C21.7266 5.41457 21.6895 5.32515 21.6236 5.25922C21.5577 5.19329 21.4682 5.15625 21.375 5.15625H19.4269C19.3336 5.15625 19.2442 5.19329 19.1783 5.25922C19.1124 5.32515 19.0753 5.41457 19.0753 5.50781Z" fill="#A3AED0"/>
<path d="M18.6965 3.90519C18.759 3.90567 18.8205 3.88949 18.8747 3.85832L20.3353 3.00003C20.4161 2.95285 20.4749 2.87551 20.4986 2.78501C20.5224 2.6945 20.5093 2.59826 20.4621 2.51746C20.4149 2.43665 20.3376 2.37789 20.2471 2.35411C20.1566 2.33033 20.0603 2.34348 19.9795 2.39066L18.5184 3.25035C18.4511 3.28909 18.3985 3.34903 18.3689 3.42082C18.3392 3.4926 18.3342 3.57218 18.3545 3.64714C18.3748 3.72209 18.4194 3.7882 18.4813 3.83514C18.5432 3.88208 18.6189 3.9072 18.6965 3.9066V3.90519Z" fill="#A3AED0"/>
<path d="M18.5185 7.76525L19.9795 8.62494C20.0196 8.6483 20.0638 8.66355 20.1097 8.66982C20.1556 8.67609 20.2023 8.67326 20.2471 8.66148C20.2919 8.64971 20.334 8.62922 20.3709 8.6012C20.4077 8.57317 20.4388 8.53815 20.4621 8.49814C20.4855 8.45813 20.5007 8.41391 20.507 8.368C20.5133 8.32209 20.5104 8.2754 20.4987 8.23059C20.4869 8.18578 20.4664 8.14372 20.4384 8.10683C20.4104 8.06994 20.3753 8.03892 20.3353 8.01556L18.8747 7.15775C18.8349 7.13349 18.7906 7.1174 18.7445 7.11042C18.6984 7.10343 18.6514 7.10568 18.6062 7.11705C18.5609 7.12841 18.5184 7.14866 18.4811 7.17661C18.4438 7.20456 18.4124 7.23966 18.3887 7.27986C18.3651 7.32006 18.3497 7.36456 18.3435 7.41077C18.3372 7.45698 18.3402 7.50397 18.3523 7.54901C18.3643 7.59405 18.3852 7.63624 18.4138 7.67313C18.4423 7.71001 18.4779 7.74085 18.5185 7.76384V7.76525Z" fill="#A3AED0"/>
<path d="M2.625 5.85938H4.57312C4.66637 5.85938 4.75579 5.82234 4.82172 5.7564C4.88765 5.69047 4.92469 5.60105 4.92469 5.50781C4.92469 5.41457 4.88765 5.32515 4.82172 5.25922C4.75579 5.19329 4.66637 5.15625 4.57312 5.15625H2.625C2.53176 5.15625 2.44234 5.19329 2.37641 5.25922C2.31048 5.32515 2.27344 5.41457 2.27344 5.50781C2.27344 5.60105 2.31048 5.69047 2.37641 5.7564C2.44234 5.82234 2.53176 5.85938 2.625 5.85938Z" fill="#A3AED0"/>
<path d="M3.66467 3.00003L5.1253 3.85785C5.16512 3.8821 5.20938 3.89819 5.25548 3.90518C5.30159 3.91217 5.34862 3.90991 5.39384 3.89855C5.43907 3.88718 5.48158 3.86694 5.51891 3.83898C5.55623 3.81103 5.58762 3.77593 5.61125 3.73573C5.63488 3.69553 5.65027 3.65103 5.65654 3.60483C5.66281 3.55862 5.65982 3.51162 5.64775 3.46658C5.63567 3.42154 5.61476 3.37935 5.58623 3.34247C5.5577 3.30559 5.52211 3.27475 5.48155 3.25175L4.02045 2.39066C3.98044 2.3673 3.93622 2.35205 3.89031 2.34578C3.84441 2.3395 3.79772 2.34234 3.7529 2.35411C3.6624 2.37789 3.58506 2.43665 3.53788 2.51746C3.4907 2.59826 3.47755 2.6945 3.50133 2.785C3.52511 2.87551 3.58386 2.95285 3.66467 3.00003Z" fill="#A3AED0"/>
<path d="M5.1253 7.15927L3.66467 8.01568C3.58386 8.06286 3.52511 8.14021 3.50133 8.23071C3.47755 8.32121 3.4907 8.41745 3.53788 8.49826C3.58506 8.57906 3.6624 8.63782 3.7529 8.6616C3.84341 8.68538 3.93965 8.67223 4.02045 8.62505L5.48155 7.76677C5.52211 7.74378 5.5577 7.71294 5.58623 7.67606C5.61476 7.63917 5.63567 7.59698 5.64775 7.55194C5.65982 7.5069 5.66281 7.45991 5.65654 7.4137C5.65027 7.36749 5.63488 7.32299 5.61125 7.28279C5.58762 7.24259 5.55623 7.20749 5.51891 7.17954C5.48158 7.15159 5.43907 7.13134 5.39384 7.11998C5.34862 7.10861 5.30159 7.10636 5.25548 7.11334C5.20938 7.12033 5.16512 7.13642 5.1253 7.16068V7.15927Z" fill="#A3AED0"/>
<path d="M12 8.90625C12.6721 8.90625 13.3292 8.70694 13.8881 8.33351C14.4469 7.96009 14.8825 7.42932 15.1397 6.80834C15.397 6.18736 15.4643 5.50404 15.3331 4.84481C15.202 4.18558 14.8783 3.58004 14.4031 3.10476C13.9278 2.62948 13.3222 2.30581 12.663 2.17468C12.0038 2.04355 11.3205 2.11085 10.6995 2.36807C10.0785 2.62529 9.54773 3.06087 9.1743 3.61974C8.80088 4.17861 8.60156 4.83567 8.60156 5.50781C8.60256 6.40883 8.96092 7.27266 9.59804 7.90978C10.2352 8.54689 11.099 8.90526 12 8.90625ZM9.885 5.10094C9.95313 5.03729 10.0438 5.00331 10.1369 5.00648C10.2301 5.00964 10.3182 5.04969 10.3819 5.11781L11.4684 6.28125L13.6181 3.97828C13.6818 3.90991 13.77 3.86962 13.8633 3.86628C13.9567 3.86294 14.0476 3.89682 14.1159 3.96047C14.1843 4.02412 14.2246 4.11233 14.2279 4.20569C14.2313 4.29905 14.1974 4.38991 14.1337 4.45828L11.7272 7.03641C11.6942 7.07184 11.6543 7.10011 11.61 7.11943C11.5656 7.13876 11.5178 7.14873 11.4694 7.14873C11.421 7.14873 11.3731 7.13876 11.3288 7.11943C11.2844 7.10011 11.2445 7.07184 11.2116 7.03641L9.86859 5.59735C9.83706 5.56368 9.81247 5.52413 9.79623 5.48096C9.77999 5.43779 9.77242 5.39184 9.77394 5.34574C9.77547 5.29964 9.78606 5.2543 9.80511 5.21229C9.82417 5.17029 9.85132 5.13245 9.885 5.10094Z" fill="#A3AED0"/>
<path d="M12 11.0156C13.0893 11.0156 14.1542 10.6926 15.06 10.0874C15.9657 9.48219 16.6717 8.62198 17.0886 7.61556C17.5054 6.60914 17.6145 5.50171 17.402 4.43329C17.1895 3.36488 16.6649 2.38348 15.8946 1.6132C15.1243 0.842922 14.1429 0.318354 13.0745 0.105834C12.0061 -0.106687 10.8987 0.00238645 9.89225 0.41926C8.88583 0.836133 8.02563 1.54208 7.42042 2.44784C6.81522 3.35359 6.49219 4.41847 6.49219 5.50781C6.4938 6.96808 7.0746 8.36808 8.10717 9.40064C9.13974 10.4332 10.5397 11.014 12 11.0156ZM12 1.40625C12.8112 1.40625 13.6042 1.64681 14.2787 2.09749C14.9532 2.54818 15.4789 3.18875 15.7893 3.93821C16.0998 4.68768 16.181 5.51236 16.0228 6.30799C15.8645 7.10361 15.4739 7.83444 14.9002 8.40806C14.3266 8.98167 13.5958 9.37231 12.8002 9.53057C12.0045 9.68883 11.1799 9.6076 10.4304 9.29716C9.68094 8.98673 9.04036 8.46102 8.58968 7.78652C8.13899 7.11202 7.89844 6.31903 7.89844 5.50781C7.89968 4.42039 8.3322 3.37787 9.10113 2.60894C9.87005 1.84002 10.9126 1.40749 12 1.40625Z" fill="#A3AED0"/>
</g>
<defs>
<clipPath id="clip0_204_692">
<rect width="24" height="24" fill="white"/>
</clipPath>
</defs>
</svg>
