<svg width="24" height="24" viewBox="0 0 24 24" fill="none" xmlns="http://www.w3.org/2000/svg">
<path d="M21.375 10.4999C21.375 10.0859 21.711 9.7499 22.125 9.7499H23.5943C23.4308 7.51865 22.5446 5.48877 21.1676 3.8924L20.1289 4.93115C19.9823 5.07777 19.7906 5.1509 19.5986 5.1509C19.4066 5.1509 19.215 5.07777 19.0684 4.93115C18.7755 4.63827 18.7755 4.16352 19.0684 3.87065L20.1071 2.8319C18.5111 1.45527 16.4813 0.569148 14.25 0.405648V1.8749C14.25 2.2889 13.914 2.6249 13.5 2.6249C13.086 2.6249 12.75 2.2889 12.75 1.8749V0.405273C10.5188 0.568773 8.48739 1.4534 6.89101 2.83002L7.93164 3.87065C8.22451 4.16352 8.22451 4.63827 7.93164 4.93115C7.78539 5.07777 7.59339 5.1509 7.40139 5.1509C7.20939 5.1509 7.01739 5.07777 6.87114 4.93115L5.83126 3.89127C4.41151 5.53677 3.51189 7.64277 3.39001 9.95615C4.02376 9.82115 4.71001 9.7499 5.43751 9.7499C9.02251 9.7499 11.625 11.4861 11.625 13.8749V20.4486C11.9933 20.5191 12.369 20.566 12.75 20.5945V19.1249C12.75 18.7109 13.086 18.3749 13.5 18.3749C13.914 18.3749 14.25 18.7109 14.25 19.1249V20.5941C16.4813 20.4306 18.5111 19.5445 20.1075 18.1675L19.0688 17.1288C18.7759 16.8359 18.7759 16.3611 19.0688 16.0683C19.3616 15.7754 19.8364 15.7754 20.1293 16.0683L21.168 17.107C22.545 15.5106 23.4308 13.4811 23.5946 11.2495H22.125C21.711 11.2499 21.375 10.9139 21.375 10.4999ZM17.7799 14.7801C17.6333 14.9264 17.4416 14.9999 17.2496 14.9999C17.0576 14.9999 16.866 14.9268 16.7194 14.7801L12.9698 11.0301C12.8291 10.8895 12.75 10.6986 12.75 10.4999V4.8749C12.75 4.4609 13.086 4.1249 13.5 4.1249C13.914 4.1249 14.25 4.4609 14.25 4.8749V10.1894L17.7799 13.7196C18.0728 14.0121 18.0728 14.4873 17.7799 14.7801Z" fill="#A3AED0"/>
<path d="M5.4375 10.875C5.09625 10.875 4.75238 10.8941 4.41337 10.9327C1.998 11.214 0.375 12.3964 0.375 13.875V20.625C0.375 22.3354 2.5515 23.625 5.4375 23.625C8.3235 23.625 10.5 22.3354 10.5 20.625V13.875C10.5 12.1646 8.3235 10.875 5.4375 10.875ZM9 17.25C9 17.8616 7.61212 18.75 5.4375 18.75C3.26288 18.75 1.875 17.8616 1.875 17.25V16.041C2.54588 16.4261 3.41062 16.7006 4.41562 16.8176C4.75237 16.8559 5.09625 16.875 5.4375 16.875C6.85463 16.875 8.09888 16.5626 9 16.0436V17.25ZM9 13.875C9 14.3164 8.274 14.9006 7.05338 15.1924C7.56862 14.8215 7.875 14.367 7.875 13.875C7.875 13.383 7.56862 12.9285 7.05338 12.5576C8.274 12.8494 9 13.4336 9 13.875ZM5.4375 22.125C3.26288 22.125 1.875 21.2366 1.875 20.625V19.4186C2.77612 19.9376 4.02038 20.25 5.4375 20.25C6.85463 20.25 8.09888 19.9376 9 19.4186V20.625C9 21.2366 7.61212 22.125 5.4375 22.125Z" fill="#A3AED0"/>
</svg>
