<svg width="24" height="24" viewBox="0 0 24 24" fill="none" xmlns="http://www.w3.org/2000/svg">
<g clip-path="url(#clip0_201_209)">
<path d="M19.2656 0.411621V4.68746H23.5411L19.2656 0.411621Z" fill="#A3AED0"/>
<path d="M18.5625 6.09375C18.1742 6.09375 17.8594 5.77894 17.8594 5.39062V0H7.78125C6.61814 0 5.67188 0.946266 5.67188 2.10938V9.9698C5.90353 9.9488 6.13795 9.9375 6.375 9.9375C8.77163 9.9375 10.917 11.0332 12.3368 12.75H19.9688C20.3571 12.75 20.6719 13.0648 20.6719 13.4531C20.6719 13.8414 20.3571 14.1562 19.9688 14.1562H13.2632C13.7027 15.0139 13.9861 15.964 14.0771 16.9688H19.9688C20.3571 16.9688 20.6719 17.2836 20.6719 17.6719C20.6719 18.0602 20.3571 18.375 19.9688 18.375H14.0771C13.8668 20.6971 12.6261 22.7262 10.8168 24H21.8438C23.0069 24 23.9531 23.0537 23.9531 21.8906V6.09375H18.5625ZM19.9688 9.9375H9.65625C9.26794 9.9375 8.95312 9.62269 8.95312 9.23438C8.95312 8.84606 9.26794 8.53125 9.65625 8.53125H19.9688C20.3571 8.53125 20.6719 8.84606 20.6719 9.23438C20.6719 9.62269 20.3571 9.9375 19.9688 9.9375Z" fill="#A3AED0"/>
<path d="M6.375 11.3438C2.88567 11.3438 0.046875 14.1825 0.046875 17.6719C0.046875 21.1612 2.88567 24 6.375 24C9.86433 24 12.7031 21.1612 12.7031 17.6719C12.7031 14.1825 9.86433 11.3438 6.375 11.3438ZM8.25 18.375H6.375C5.98669 18.375 5.67188 18.0602 5.67188 17.6719V14.8594C5.67188 14.4711 5.98669 14.1562 6.375 14.1562C6.76331 14.1562 7.07812 14.4711 7.07812 14.8594V16.9688H8.25C8.63831 16.9688 8.95312 17.2836 8.95312 17.6719C8.95312 18.0602 8.63831 18.375 8.25 18.375Z" fill="#A3AED0"/>
</g>
<defs>
<clipPath id="clip0_201_209">
<rect width="24" height="24" fill="white"/>
</clipPath>
</defs>
</svg>
